<?xml version="1.0" encoding="UTF-8"?>
<!-- (c) Carrd Inc. All rights reserved. All logos and trademarks are property of their respective owners. -->
<svg xmlns="http://www.w3.org/2000/svg" version="1.1" xmlns:xlink="http://www.w3.org/1999/xlink" viewBox="0 0 40 40" display="none" width="0" height="0">
	<symbol id="arrow-left-light" viewBox="0 0 40 40"><path d="M5.5,19.9c0-0.3,0.1-0.3,0.1-0.4L18.3,6.7c0.1-0.1,0.1-0.1,0.4-0.1c0.3,0,0.3,0.1,0.4,0.1l1.5,1.5c0.1,0.1,0.1,0.1,0.1,0.4 S20.6,8.9,20.6,9l-9.2,9.2h22.4c0.1,0,0.2,0,0.2,0c0,0,0,0,0,0c0.1,0.1,0.1,0.2,0.1,0.4v2.5c0,0.2-0.1,0.4-0.1,0.5c0,0-0.1,0-0.2,0 H11.4l9.2,9.2c0.1,0.1,0.1,0.1,0.1,0.4c0,0.3-0.1,0.3-0.1,0.4l-1.5,1.5c-0.1,0.1-0.1,0.1-0.4,0.1c-0.3,0-0.3-0.1-0.4-0.1L5.6,20.3 C5.6,20.2,5.5,20.2,5.5,19.9z"/></symbol>
	<symbol id="menu-light" viewBox="0 0 40 40"><path d="M3,32.2l0-1.6c0-0.3,0.2-0.5,0.5-0.5l33-0.1c0.3,0,0.5,0.2,0.5,0.5l0,1.6c0,0.3-0.2,0.5-0.5,0.5l-33,0.1 C3.2,32.7,3,32.5,3,32.2z M3,20.8l0-1.6c0-0.3,0.2-0.5,0.5-0.5l33-0.1c0.3,0,0.5,0.2,0.5,0.5l0,1.6c0,0.3-0.2,0.5-0.5,0.5l-33,0.1 C3.2,21.3,3,21.1,3,20.8z M3,9.5l0-1.6c0-0.3,0.2-0.5,0.5-0.5l33-0.1c0.3,0,0.5,0.2,0.5,0.5l0,1.6c0,0.3-0.2,0.5-0.5,0.5L3.5,10 C3.2,10,3,9.8,3,9.5z"/></symbol>
</svg>
